<svg id="_0146_404_page_not_found_1" xmlns="http://www.w3.org/2000/svg" viewBox="0 0 500 500"
  data-imageid="404-page-not-found-1-66" imageName="404 Page Not Found 1"
  class="illustrations_image" style="width: 206px;">
  <defs>
    <style>
      .cls-1_404-page-not-found-1-66{fill:#fff;}.cls-2_404-page-not-found-1-66{opacity:.39;}.cls-2_404-page-not-found-1-66,.cls-3_404-page-not-found-1-66,.cls-4_404-page-not-found-1-66,.cls-5_404-page-not-found-1-66,.cls-6_404-page-not-found-1-66,.cls-7_404-page-not-found-1-66,.cls-8_404-page-not-found-1-66,.cls-9_404-page-not-found-1-66{fill:none;}.cls-10_404-page-not-found-1-66{fill:#f4a28c;}.cls-3_404-page-not-found-1-66{opacity:.58;}.cls-11_404-page-not-found-1-66{fill:#ce8172;}.cls-12_404-page-not-found-1-66{fill:#e6e6e6;}.cls-4_404-page-not-found-1-66{opacity:.03;}.cls-5_404-page-not-found-1-66{opacity:.73;}.cls-6_404-page-not-found-1-66{opacity:.08;}.cls-7_404-page-not-found-1-66{opacity:.31;}.cls-8_404-page-not-found-1-66{opacity:.3;}.cls-13_404-page-not-found-1-66{fill:#24285b;}.cls-14_404-page-not-found-1-66{fill:#000001;}.cls-9_404-page-not-found-1-66{opacity:.15;}.cls-15_404-page-not-found-1-66{fill:#ffd200;}.cls-16_404-page-not-found-1-66{fill:#68e1fd;}</style>
  </defs>
  <g id="bg_404-page-not-found-1-66">
    <g class="cls-8_404-page-not-found-1-66">
      <path class="cls-12_404-page-not-found-1-66"
        d="m96.84,209.61c-39.29,7.63-67.06,44.93-62.48,86,2.43,21.79,12.28,41.01,37.6,46.57,67.2,14.75,320.84,70.29,370.68-25.94,38.85-75.01,15.7-126.93-20.39-159.43-36.09-32.5-110.85-25.75-172.64-3.51-46.05,16.57-80.21,42.24-152.77,56.32Z" />
    </g>
    <g class="cls-4_404-page-not-found-1-66">
      <ellipse class="cls-14_404-page-not-found-1-66" cx="252.75" cy="398.41" rx="228.74" ry="16.91" />
    </g>
    <path class="cls-12_404-page-not-found-1-66"
      d="m438.94,154.97c0-5.3-4.3-9.61-9.61-9.61-.53,0-1.04.05-1.54.14-2.19-4.06-6.47-6.82-11.4-6.82-.16,0-.32.02-.47.02.3-1.19.47-2.44.47-3.73,0-8.49-6.88-15.37-15.37-15.37s-15.37,6.88-15.37,15.37c0,1.29.18,2.53.47,3.73-.16,0-.31-.02-.47-.02-7.15,0-12.95,5.8-12.95,12.95s5.8,12.95,12.95,12.95h44.94v-.09c4.71-.61,8.35-4.63,8.35-9.52Z" />
    <path class="cls-12_404-page-not-found-1-66"
      d="m284.64,79.2c0-4.55-3.69-8.24-8.24-8.24-.45,0-.89.05-1.32.12-1.87-3.48-5.55-5.85-9.78-5.85-.14,0-.27.02-.41.02.26-1.02.41-2.09.41-3.19,0-7.28-5.9-13.18-13.18-13.18s-13.18,5.9-13.18,13.18c0,1.1.15,2.17.41,3.19-.14,0-.27-.02-.41-.02-6.13,0-11.1,4.97-11.1,11.1s4.97,11.1,11.1,11.1h38.54v-.08c4.04-.52,7.16-3.97,7.16-8.16Z" />
    <path class="cls-12_404-page-not-found-1-66"
      d="m90.94,237.74c0-4.55-3.69-8.24-8.24-8.24-.45,0-.89.05-1.32.12-1.87-3.48-5.55-5.85-9.78-5.85-.14,0-.27.02-.41.02.26-1.02.41-2.09.41-3.19,0-7.28-5.9-13.18-13.18-13.18s-13.18,5.9-13.18,13.18c0,1.1.15,2.17.41,3.19-.14,0-.27-.02-.41-.02-6.13,0-11.1,4.97-11.1,11.1s4.97,11.1,11.1,11.1h38.54v-.08c4.04-.52,7.16-3.97,7.16-8.16Z" />
  </g>
  <g id="sun_404-page-not-found-1-66">
    <circle class="cls-15_404-page-not-found-1-66" cx="132.6" cy="103.97" r="32.36" />
    <g class="cls-9_404-page-not-found-1-66">
      <circle class="cls-15_404-page-not-found-1-66" cx="132.6" cy="103.97" r="61.7" />
    </g>
  </g>
  <g id="_404_404-page-not-found-1-66">
    <circle class="cls-13_404-page-not-found-1-66" cx="249.97" cy="315.23" r="82.41" />
    <circle class="cls-1_404-page-not-found-1-66" cx="249.97" cy="315.23" r="51.88" />
    <path class="cls-16_404-page-not-found-1-66 targetColor"
      d="m150.48,334.88c5.46,0,7.42,1.96,7.42,7.42v9.38c0,5.46-1.53,7.42-7.42,7.42h-15.06v28.59c0,5.46-1.96,7.42-7.42,7.42h-10.69c-5.46,0-7.42-1.96-7.42-7.42v-28.59H37.88c-5.46,0-7.42-1.96-7.42-7.42v-7.86c0-3.71.87-6.55,2.62-8.95l72.45-89.91c2.84-3.49,6.33-5.24,10.47-5.24h12c5.45,0,7.42,1.53,7.42,7.42v87.72h15.06Zm-40.59-58.48l-47.35,58.48h47.35v-58.48Z"
      style="fill: rgb(179, 157, 255);" />
    <path class="cls-16_404-page-not-found-1-66 targetColor"
      d="m462.13,334.88c5.46,0,7.42,1.96,7.42,7.42v9.38c0,5.46-1.53,7.42-7.42,7.42h-15.06v28.59c0,5.46-1.96,7.42-7.42,7.42h-10.69c-5.46,0-7.42-1.96-7.42-7.42v-28.59h-72.01c-5.46,0-7.42-1.96-7.42-7.42v-7.86c0-3.71.87-6.55,2.62-8.95l72.45-89.91c2.84-3.49,6.33-5.24,10.47-5.24h12c5.45,0,7.42,1.53,7.42,7.42v87.72h15.06Zm-40.59-58.48l-47.35,58.48h47.35v-58.48Z"
      style="fill: rgb(179, 157, 255);" />
    <g class="cls-3_404-page-not-found-1-66">
      <path class="cls-16_404-page-not-found-1-66 targetColor"
        d="m429.81,222.19s-13.71-3.75-16.7-16.51c0,0,21.25-4.29,21.85,17.64l-5.16-1.13Z"
        style="fill: rgb(179, 157, 255);" />
    </g>
    <g class="cls-5_404-page-not-found-1-66">
      <path class="cls-16_404-page-not-found-1-66 targetColor"
        d="m431.49,220.83s-9.58-15.15-1.15-29.31c0,0,16.16,10.26,8.98,29.34l-7.83-.03Z"
        style="fill: rgb(179, 157, 255);" />
    </g>
    <path class="cls-16_404-page-not-found-1-66 targetColor"
      d="m433.96,220.84s5.06-16,20.36-19.03c0,0,2.87,10.39-9.91,19.07l-10.46-.04Z"
      style="fill: rgb(179, 157, 255);" />
    <polygon class="cls-13_404-page-not-found-1-66"
      points="424.02 220.48 426.79 239.5 444.3 239.57 446.88 220.57 424.02 220.48" />
    <path class="cls-10_404-page-not-found-1-66"
      d="m259.94,207s2.26,10.89,1.28,18.42c-.4,3.06-3.25,5.24-6.3,4.8-3.79-.55-8.75-2.39-10.67-8.08l-4.44-9.25s-2.58-5.89,3.11-11.11c5.69-5.21,15.97-1.48,17.02,5.22Z" />
    <polygon class="cls-10_404-page-not-found-1-66"
      points="240.61 214.57 239.17 250.97 259.29 250.33 252.26 224.1 240.61 214.57" />
    <path class="cls-13_404-page-not-found-1-66"
      d="m257.26,207.79c-1.92.33-5.46.74-10.27.42,0,0,4.02,4.4,1.2,10.1-2.82,5.7-8.7,4.06-8.7,4.06l-1.5-14.2c-.57-4.13,1.15-8.24,4.51-10.7,1.37-1,2.9-2.02,4.46-2.87,3.89-2.12,10.19-.11,13.53-3.3,1.46-1.4,3.9-.71,4.43,1.24,1.15,4.24,1.18,11.12-4.37,14.17-1.02.56-2.14.88-3.28,1.07Z" />
    <path class="cls-10_404-page-not-found-1-66"
      d="m249.33,217.84s-.59-4.24-3.74-3.53c-3.15.71-2.34,6.84,2.06,6.9l1.68-3.36Z" />
    <path class="cls-10_404-page-not-found-1-66"
      d="m261.01,213.93l3.58,3.89c.88.96.47,2.51-.78,2.9l-4.13,1.3,1.32-8.09Z" />
    <g class="cls-7_404-page-not-found-1-66">
      <path class="cls-11_404-page-not-found-1-66"
        d="m254.04,229.78s-3.77-.31-6.92-3.09c0,0,1.07,6.58,9.11,12.25l-2.19-9.17Z" />
    </g>
    <path class="cls-16_404-page-not-found-1-66 targetColor"
      d="m239.17,250.97l20.12-.64s31.59-5.37,42.56,20.4c10.97,25.77-3.1,62.19-3.1,62.19,0,0-11.39,38.45-59.52,34.18,0,0-40.05-2.32-44.57-57.21-.2-2.39-.59-4.77-1.1-7.11-1.86-8.59-2.93-34.64,45.61-51.81Z"
      style="fill: rgb(179, 157, 255);" />
    <g class="cls-6_404-page-not-found-1-66">
      <path class="cls-14_404-page-not-found-1-66"
        d="m212.25,285.19s10.73,1.16,25.62,26.11c14.9,24.95,44.14,15.81,60.63-2.65l-30.66,40.48-34.27-2.74-18.64-49.62-2.69-11.58Z" />
    </g>
    <rect class="cls-15_404-page-not-found-1-66" x="324.94" y="227.78" width="5.94" height="17.29"
      transform="translate(-28.42 45.5) rotate(-7.61)" />
    <g class="cls-6_404-page-not-found-1-66">
      <rect class="cls-14_404-page-not-found-1-66" x="324.94" y="227.78" width="5.94" height="17.29"
        transform="translate(-28.42 45.5) rotate(-7.61)" />
    </g>
    <rect class="cls-13_404-page-not-found-1-66" x="325.4" y="240.13" width="9.14" height="22.22"
      transform="translate(-30.36 45.9) rotate(-7.61)" />
    <path class="cls-15_404-page-not-found-1-66"
      d="m321.4,191.96c-10.67,1.42-18.16,11.23-16.73,21.89,1.42,10.67,11.23,18.16,21.89,16.73,10.67-1.42,18.16-11.23,16.73-21.89-1.42-10.67-11.23-18.16-21.89-16.73Zm4.4,32.95c-7.53,1.01-14.46-4.29-15.46-11.82-1.01-7.53,4.29-14.46,11.82-15.46,7.53-1.01,14.46,4.29,15.46,11.82,1.01,7.53-4.29,14.46-11.82,15.46Z" />
    <circle class="cls-1_404-page-not-found-1-66" cx="324.02" cy="211.34" r="13.84" />
    <path class="cls-16_404-page-not-found-1-66 targetColor"
      d="m194.14,287.88c2.15-8.5,13.49-10.15,18.11-2.69,5.76,9.31,13.32,23.02,19.41,39.27,11.51,30.7,67.98,10.46,88.82-61.11l11.89,7.38s-16.41,92.96-82.41,96.37c0,0-41.19,8.36-53.7-42.2,0,0-3.14-9.53-3.42-14.91l-.88-6.06s-.48-6.59,2.13-15.89c0,0,.01-.06.04-.17Z"
      style="fill: rgb(179, 157, 255);" />
    <g class="cls-2_404-page-not-found-1-66">
      <path class="cls-1_404-page-not-found-1-66"
        d="m194.14,287.88c2.15-8.5,13.49-10.15,18.11-2.69,5.76,9.31,13.32,23.02,19.41,39.27,11.51,30.7,67.98,10.46,88.82-61.11l11.89,7.38s-16.41,92.96-82.41,96.37c0,0-41.19,8.36-53.7-42.2,0,0-3.14-9.53-3.42-14.91l-.88-6.06s-.48-6.59,2.13-15.89c0,0,.01-.06.04-.17Z" />
    </g>
    <path class="cls-10_404-page-not-found-1-66"
      d="m323.39,265.15s1.21-15.31,7.51-15.29c6.3.03,21.15,11.37-1.76,18.86l-5.75-3.57Z" />
  </g>
</svg>
