<?xml version="1.0" encoding="UTF-8"?><svg width="24px" height="24px" viewBox="0 0 24 24" stroke-width="1.5" fill="none" xmlns="http://www.w3.org/2000/svg" color="#000000"><path d="M5.212 15.111l-2.687-2.687a.6.6 0 010-.848l2.687-2.687a.6.6 0 01.848 0l2.687 2.687a.6.6 0 010 .848L6.06 15.111a.6.6 0 01-.848 0zM11.576 21.475l-2.687-2.687a.6.6 0 010-.849l2.687-2.687a.6.6 0 01.848 0l2.687 2.687a.6.6 0 010 .849l-2.687 2.687a.6.6 0 01-.848 0zM11.576 8.748L8.889 6.06a.6.6 0 010-.848l2.687-2.687a.6.6 0 01.848 0l2.687 2.687a.6.6 0 010 .848l-2.687 2.688a.6.6 0 01-.848 0zM17.94 15.111l-2.687-2.687a.6.6 0 010-.848l2.687-2.687a.6.6 0 01.848 0l2.687 2.687a.6.6 0 010 .848l-2.687 2.687a.6.6 0 01-.848 0z" stroke="#000000" stroke-width="1.5"></path></svg>