<?xml version="1.0" standalone="no"?><!DOCTYPE svg PUBLIC "-//W3C//DTD SVG 1.1//EN" "http://www.w3.org/Graphics/SVG/1.1/DTD/svg11.dtd"><svg class="icon" width="200px" height="200.00px" viewBox="0 0 1024 1024" version="1.1" xmlns="http://www.w3.org/2000/svg"><path d="M810.666667 174.933333c-38.4-34.133333-85.333333-55.466667-136.533334-68.266666-12.8-4.266667-93.866667-21.333333-153.6-21.333334H512h-8.533333c-59.733333 0-145.066667 17.066667-157.866667 21.333334-46.933333 12.8-93.866667 34.133333-132.266667 68.266666C128 251.733333 128 371.2 170.666667 469.333333c42.666667 106.666667 89.6 200.533333 153.6 294.4C375.466667 836.266667 430.933333 938.666667 512 938.666667c81.066667 0 136.533333-102.4 192-174.933334 64-89.6 110.933333-187.733333 153.6-294.4 38.4-98.133333 38.4-217.6-46.933333-294.4m-34.133334 260.266667c-46.933333 115.2-89.6 200.533333-145.066666 277.333333-8.533333 8.533333-12.8 21.333333-21.333334 29.866667-21.333333 34.133333-72.533333 110.933333-98.133333 110.933333-29.866667 0-76.8-72.533333-102.4-110.933333-8.533333-8.533333-12.8-21.333333-21.333333-29.866667-51.2-76.8-98.133333-162.133333-145.066667-277.333333-8.533333-29.866667-42.666667-136.533333 25.6-200.533333 21.333333-21.333333 55.466667-34.133333 98.133333-46.933334 17.066667 0 89.6-17.066667 136.533334-17.066666h12.8c46.933333 0 119.466667 12.8 136.533333 17.066666 42.666667 12.8 76.8 25.6 98.133333 46.933334 72.533333 64 38.4 170.666667 25.6 200.533333z"  /></svg>