<?xml version="1.0" standalone="no"?><!DOCTYPE svg PUBLIC "-//W3C//DTD SVG 1.1//EN" "http://www.w3.org/Graphics/SVG/1.1/DTD/svg11.dtd"><svg t="1684820886523" class="icon" viewBox="0 0 1024 1024" version="1.1" xmlns="http://www.w3.org/2000/svg" p-id="4369" xmlns:xlink="http://www.w3.org/1999/xlink" width="200" height="200"><path d="M447.443478 888.208696C434.086957 534.26087 405.147826 311.652174 362.852174 224.834783c-13.356522-28.93913-37.843478-42.295652-69.008696-42.295652-13.356522 0-33.391304 2.226087-60.104348 6.678261l-6.678261-28.93913 0 0 175.86087-51.2c17.808696 42.295652 31.165217 84.591304 42.295652 126.886957 15.582609 62.330435 26.713043 138.017391 37.843478 224.834783 4.452174 44.521739 11.130435 135.791304 17.808696 278.26087 69.008696-77.913043 111.304348-124.66087 124.66087-144.695652 73.46087-100.173913 115.756522-158.052174 126.886957-175.86087 17.808696-28.93913 31.165217-55.652174 37.843478-77.913043 6.678261-17.808696 8.904348-33.391304 8.904348-46.747826 0-15.582609-13.356522-31.165217-40.069565-51.2-22.26087-20.034783-35.617391-42.295652-35.617391-66.782609 0-17.808696 6.678261-33.391304 22.26087-48.973913 13.356522-13.356522 31.165217-20.034783 51.2-20.034783 24.486957 0 44.521739 8.904348 62.330435 28.93913s26.713043 42.295652 26.713043 71.234783-4.452174 55.652174-13.356522 82.365217c-15.582609 42.295652-42.295652 93.495652-82.365217 155.826087s-104.626087 142.469565-191.443478 247.095652" p-id="4370" fill="#b0b0fb"></path></svg>