<?xml version="1.0" standalone="no"?><!DOCTYPE svg PUBLIC "-//W3C//DTD SVG 1.1//EN" "http://www.w3.org/Graphics/SVG/1.1/DTD/svg11.dtd"><svg class="icon" width="200px" height="200.00px" viewBox="0 0 1024 1024" version="1.1" xmlns="http://www.w3.org/2000/svg"><path d="M507.733333 628.48a114.858667 114.858667 0 0 1-115.114666-115.114667A114.858667 114.858667 0 0 1 507.733333 398.250667a114.858667 114.858667 0 0 1 115.114667 115.114666 114.858667 114.858667 0 0 1-115.114667 115.072z m0-136.917333a21.248 21.248 0 0 0-21.76 21.76c0 12.458667 9.301333 21.802667 21.76 21.802666 12.458667 0 21.76-9.344 21.76-21.76a21.248 21.248 0 0 0-21.76-21.76zM803.242667 857.088c-12.416 0-23.296-4.693333-32.64-13.994667-18.688-18.645333-18.688-48.213333 0-65.322666a369.408 369.408 0 0 0 108.885333-262.826667c0-99.584-38.912-192.896-108.885333-262.912-18.688-18.645333-18.688-48.213333 0-65.28 18.645333-18.688 48.213333-18.688 65.322666 0C924.586667 272.213333 972.8 388.864 972.8 513.322667c0 124.416-48.213333 241.066667-136.874667 329.728a44.757333 44.757333 0 0 1-32.682666 13.994666zM210.645333 855.552a44.8 44.8 0 0 1-32.64-13.994667A461.098667 461.098667 0 0 1 42.666667 513.365333c0-124.458667 48.213333-241.066667 136.874666-328.192 18.645333-18.688 48.213333-18.688 65.322667 0 18.688 17.066667 18.688 48.213333 0 65.28a369.408 369.408 0 0 0-108.885333 262.912c0 99.541333 38.912 192.853333 108.885333 262.826667 18.688 18.688 18.688 48.213333 0 65.365333-9.344 9.301333-21.76 13.994667-34.218667 13.994667z" fill="#172B4D" /><path d="M669.482667 723.328a44.8 44.8 0 0 1-32.64-13.994667c-18.688-18.645333-18.688-48.213333 0-65.322666a184.746667 184.746667 0 0 0 54.442666-130.645334c0-48.213333-18.688-94.890667-54.442666-129.109333-18.688-18.645333-18.688-48.213333 0-65.322667 18.645333-18.688 48.213333-18.688 65.28 0a272.725333 272.725333 0 0 1 80.896 195.968c0 74.666667-29.525333 143.104-80.853334 196.010667-7.765333 7.765333-20.224 12.416-32.682666 12.416zM344.405333 721.792a44.8 44.8 0 0 1-32.64-13.994667c-51.328-52.906667-80.896-121.344-80.896-194.432 0-74.666667 27.989333-143.104 80.896-196.010666 18.645333-18.645333 48.213333-18.645333 65.28 0 18.688 18.688 18.688 48.213333 0 65.365333a183.893333 183.893333 0 0 0-54.4 129.066667c0 48.213333 18.645333 94.890667 52.906667 129.109333 18.645333 18.688 18.645333 48.213333 0 65.322667-7.808 12.458667-18.688 15.573333-31.146667 15.573333z" fill="#172B4D" /></svg>