<svg  xmlns="http://www.w3.org/2000/svg" xmlns:xlink="http://www.w3.org/1999/xlink" width="1664" height="100" viewBox="0 0 1688 124"><path transform="translate(0 100)" d="M49.8,6.9Q47.6,6.9 45.8,5.7Q44,4.5 44,2.2L44,-23.6Q33.8,-23.8 23.7,-24.2Q11.5,-24.8 10.9,-35.2Q10.7,-39.5 10.7,-43.1Q10.7,-47.5 10.9,-51.7Q11,-56.8 14.2,-60Q17.4,-63.2 23.6,-63.4Q33.5,-63.7 44,-63.7L44,-77.2Q44,-79.8 45.8,-81Q47.6,-82.2 49.8,-82.2Q52,-82.2 53.85,-80.95Q55.7,-79.7 55.7,-77.2L55.7,-63.7Q66.2,-63.7 76.5,-63.4Q87.8,-62.6 89,-52.8Q89.3,-49 89.3,-44.8Q89.3,-40 89,-35.3Q88.5,-25.2 75.6,-24.2Q65.6,-23.8 55.7,-23.6L55.7,2.2Q55.7,4.5 53.9,5.7Q52.1,6.9 49.8,6.9ZM55.7,-34Q65.3,-34.1 73.8,-34.4Q76.8,-34.5 77.45,-36.65Q78.1,-38.8 78.1,-43.7Q78.1,-48.8 77.45,-50.9Q76.8,-53 73.7,-53Q65.5,-53.3 55.7,-53.3L55.7,-34ZM44,-33.9L44,-53.3Q36.8,-53.3 30.3,-53.1L26.1,-53Q22.9,-52.8 22.3,-50.35Q21.7,-47.9 21.7,-43.2Q21.7,-38.4 22.4,-36.45Q23.1,-34.5 26.2,-34.4Q34.4,-33.9 44,-33.9Z"></path><path transform="translate(100 100)" d="M12.6,6.6Q9.6,6.6 7.85,4.55Q6.1,2.5 6.1,0.2Q6.1,-1.7 7.35,-3.25Q8.6,-4.8 11.3,-5.3Q30.8,-9.1 43,-20.9Q37.4,-28.2 33.8,-36.5Q29.8,-33.2 27.5,-31.7Q25.2,-30.2 23.1,-30.2Q20.6,-30.2 18.85,-31.95Q17.1,-33.7 17.1,-35.9Q17.1,-39.6 21.6,-41.9Q25.4,-43.9 28.5,-46.6Q31.6,-49.3 33.1,-51.7Q33.9,-53.1 35.2,-53.5L13,-53.1Q10.1,-53.1 8.85,-54.7Q7.6,-56.3 7.6,-58.2Q7.6,-60.3 9,-62.1Q10.4,-63.9 13,-63.9L44.2,-63.9L44.1,-76.8Q44.1,-79.4 46,-80.75Q47.9,-82.1 50.2,-82.1Q52.5,-82.1 54.4,-80.75Q56.3,-79.4 56.3,-76.8L56.2,-63.9L87,-63.9Q89.6,-63.9 90.95,-62.15Q92.3,-60.4 92.3,-58.3Q92.3,-56.4 91.05,-54.75Q89.8,-53.1 87.1,-53.1L72.1,-53.4Q69.2,-35.5 57.7,-20.6Q69.8,-10.2 88.7,-7.1Q91.3,-6.6 92.5,-5.1Q93.7,-3.6 93.7,-1.7Q93.7,0.8 91.8,3.1Q89.9,5.4 86.7,5.4Q86.5,5.4 80.9,4.25Q75.3,3.1 67.15,-0.8Q59,-4.7 50.4,-12.6Q41.4,-4.3 32.85,-0.15Q24.3,4 18.5,5.3Q12.7,6.6 12.6,6.6ZM50,-28.8Q58.2,-40.1 60.4,-53.6L38.7,-53.5Q40.6,-53 41.9,-51.7Q43.2,-50.4 43.2,-48.6Q43.2,-46.8 41.8,-44.9Q44.7,-35.9 50,-28.8Z"></path><path transform="translate(200 100)" d="M16.4,7.1Q14.3,7.1 12.55,5.9Q10.8,4.7 10.8,2.3L11,-20.8Q11,-43.9 11.4,-66.2Q11.6,-71.1 15,-74Q18.4,-76.9 23.9,-77Q37.6,-77.3 52,-77.3Q64.6,-77.3 76.9,-77Q81.8,-76.9 85.45,-74Q89.1,-71.1 89.4,-65.2Q89.7,-52 89.7,-39.5Q89.7,-31 89.8,-24.5L90,-9.1Q90,5.8 71.3,5.8Q68.7,5.8 66.2,5.55Q63.7,5.3 62.1,4.05Q60.5,2.8 60.5,-0.1Q60.5,-2.2 61.8,-3.9Q63.1,-5.6 65.5,-5.6L66.2,-5.6Q69.7,-5.2 72.1,-5.2Q76.2,-5.2 77.35,-6.75Q78.5,-8.3 78.5,-11.8Q78.5,-52.1 78.2,-61.2Q78.1,-64.8 76.75,-66.15Q75.4,-67.5 71.8,-67.5L69.9,-67.5L69.6,-62.6Q69.1,-54.2 67.9,-44.2Q72.4,-40.4 74.5,-38.05Q76.6,-35.7 77.1,-34.35Q77.6,-33 77.6,-32.3Q77.6,-30.2 76.1,-28.75Q74.6,-27.3 72.7,-27.3Q70.2,-27.3 68.8,-29.45Q67.4,-31.6 66,-33.2Q63.4,-21.2 56.4,-10.6Q54.1,-7.4 51.2,-7.4Q49.1,-7.4 47.6,-8.85Q46.1,-10.3 46.1,-12.3Q46.1,-13.7 47,-15.1Q55.7,-28.4 57.7,-41.1Q54,-44 49.8,-46.5Q47.5,-47.9 47.5,-50.2Q47.5,-51.8 48.7,-53.05Q49.9,-54.3 51.7,-54.3Q52.4,-54.3 53.3,-54Q54.2,-53.7 59,-50.6Q59.5,-56.7 59.6,-61.7Q59.6,-64.9 59.8,-67.6L46.9,-67.6L46.5,-62.8Q45.9,-54.2 44.5,-44.2Q49.8,-40.2 51.95,-37.8Q54.1,-35.4 54.1,-33.2Q54.1,-31.2 52.65,-29.7Q51.2,-28.2 49.4,-28.2Q47.3,-28.2 45.5,-30.4Q44.1,-32.3 42.5,-34Q41.5,-29.6 39.25,-23.75Q37,-17.9 33.95,-13.3Q30.9,-8.7 27.5,-8.7Q25.6,-8.7 24.2,-10.1Q22.8,-11.5 22.8,-13.4Q22.8,-15.1 23.9,-16.6Q32,-27.8 34.1,-41.1Q30.2,-43.8 25.6,-46.2Q23.1,-47.8 23.1,-49.9Q23.1,-51.5 24.3,-52.75Q25.5,-54 27.4,-54Q28,-54 28.65,-53.8Q29.3,-53.6 30.85,-52.8Q32.4,-52 35.4,-50.3Q36.3,-58.9 36.8,-67.6L29,-67.5Q25,-67.4 23.6,-65.85Q22.2,-64.3 22.2,-61.2Q21.7,-44.9 21.7,-26.6Q21.7,-12.5 21.9,2.2Q21.9,4.7 20.15,5.9Q18.4,7.1 16.4,7.1Z"></path><path transform="translate(300 100)" d="M41.5,7.1Q37.9,7.1 34.7,6.1Q29,4.5 29,0.1Q29,-1.9 30.4,-3.5Q31.8,-5.1 34.1,-5.1Q35.2,-5.1 36.2,-4.8Q39.3,-3.8 42.1,-3.8Q48.8,-3.8 51.4,-9.9Q52.9,-13.5 52.9,-18.2Q52.9,-20 52.6,-21.7L11.5,-21.2Q8.8,-21.2 7.55,-22.65Q6.3,-24.1 6.3,-26Q6.3,-27.9 7.6,-29.45Q8.9,-31 11.4,-31.2L47.1,-31.5Q45.5,-32.7 43.6,-33.5Q41.7,-34.3 40.95,-35.4Q40.2,-36.5 40.2,-37.7Q40.2,-39.7 41.9,-41.3Q43.6,-42.9 46.2,-42.9Q49,-42.9 52,-40.9Q53.2,-41.6 55.05,-42.8Q56.9,-44 58.4,-45.1Q59.9,-46.2 59.9,-46.6Q59.9,-47 59.2,-47L58.9,-47Q56.8,-47.1 52.3,-47.1Q43.4,-47.1 30.6,-46.6Q27.9,-46.6 26.6,-48.05Q25.3,-49.5 25.3,-51.2Q25.3,-52.9 26.6,-54.4Q27.9,-55.9 30.6,-56Q41.4,-56.4 52.5,-56.4Q59.7,-56.4 64.8,-56.2Q69.3,-55.9 71.5,-53.95Q73.7,-52 73.7,-49.3Q73.7,-45.9 70.5,-42.75Q67.3,-39.6 58.8,-34.4Q59.7,-33.1 60.5,-31.6L88.8,-32Q91.3,-32 92.55,-30.45Q93.8,-28.9 93.8,-27Q93.8,-25.1 92.55,-23.55Q91.3,-22 88.8,-22L63.4,-21.8Q63.6,-20 63.6,-18Q63.6,-8.5 59.1,-1.6Q53.5,7.1 41.5,7.1ZM15.7,-45.5Q13.7,-45.5 12,-46.85Q10.3,-48.2 10.1,-51L10,-55.7L10.1,-60.8Q10.2,-64.6 13.15,-67.65Q16.1,-70.7 22,-70.9Q33.1,-71.1 44.2,-71.1L44.2,-77.8Q44.2,-80.4 46.05,-81.7Q47.9,-83 50.1,-83Q52.4,-83 54.25,-81.7Q56.1,-80.4 56.1,-77.8L56.1,-71.1Q66.9,-71.1 77.7,-70.9Q82.8,-70.8 86.1,-68Q89.4,-65.2 89.7,-60.3L89.8,-54.9Q89.8,-52.8 89.7,-51.2Q89.5,-48.6 87.6,-47.25Q85.7,-45.9 83.5,-45.9Q81.3,-45.9 79.55,-47.2Q77.8,-48.5 77.8,-51.1Q77.8,-57.1 76.95,-59.25Q76.1,-61.4 71.9,-61.4Q60.1,-61.7 47.9,-61.7Q37.4,-61.7 27.8,-61.4Q24.2,-61.3 22.9,-60.05Q21.6,-58.8 21.5,-56.2L21.5,-50.7Q21.5,-48.2 19.7,-46.85Q17.9,-45.5 15.7,-45.5Z"></path><path transform="translate(400 100)" d="M26.6,4.3Q20.6,4.3 20.5,-3.2L20.4,-15.2Q20.4,-25 20.6,-37L20.6,-37.4Q20.6,-38.9 18.85,-39.05Q17.1,-39.2 14.6,-39.2L8.7,-39Q6.7,-39 5.45,-40.5Q4.2,-42 4.2,-44.4Q4.2,-46.3 5.2,-47.5Q6.5,-49.2 9.05,-49.4Q11.6,-49.6 15,-49.6Q18.4,-49.6 22.5,-49.3Q27.9,-48.9 29.85,-46.7Q31.8,-44.5 31.8,-39.7L31.8,-39.2Q31.6,-28.6 31.6,-20Q31.6,-9.4 31.8,-9Q32,-8.6 32.2,-8.7L32.8,-8.8Q36.6,-10.1 40,-12.3Q41.2,-13 42.3,-13Q44.7,-13 46.2,-10.5Q47.1,-9 47.1,-7.6Q47.1,-5.2 44.7,-3.5Q38.5,0.5 31.6,3.2Q28.8,4.3 26.6,4.3ZM31.4,-60.5L31.2,-60.5Q28.8,-60.5 26.8,-62.6Q22.5,-67.3 16.5,-70.6Q14.2,-71.9 14.2,-74.4Q14.2,-75.8 15.1,-77.1Q16.6,-79.3 19.6,-79.3Q20.8,-79.3 22.2,-79Q29.8,-76.5 35.3,-70.4Q36.7,-68.7 36.7,-66.6Q36.7,-64.3 35.15,-62.45Q33.6,-60.6 31.4,-60.5ZM66.1,8.7Q63.7,8.7 61.9,7.1Q60.1,5.5 60.1,2.8L60.1,-41.1L41.4,-41.1Q39.2,-41.1 37.75,-42.8Q36.3,-44.5 36.3,-46.4Q36.3,-48.5 37.5,-50Q39,-51.8 41.4,-51.8L60.1,-51.8L60.1,-76.4Q60.1,-78.8 61.8,-80.3Q63.5,-81.8 66,-81.8Q68.6,-81.8 70.3,-80.55Q72,-79.3 72,-76.4L72,-51.8L91.2,-51.8Q93.6,-51.8 94.95,-50.15Q96.3,-48.5 96.3,-46.2Q96.2,-44.3 94.9,-42.7Q93.6,-41.1 91.2,-41.1L72,-41.1L72,2.8Q72,5.5 70.2,7.1Q68.4,8.7 66.1,8.7Z"></path><path transform="translate(500 100)" d="M44.4,-61.4L43.8,-61.4Q41.8,-61.4 40,-63.1Q37,-66.3 32.5,-68.5Q29.3,-70 29.3,-72.6Q29.3,-73.6 29.7,-74.7Q31,-78 33.9,-78Q34.7,-78 35.7,-77.7Q41.8,-76.1 46.9,-71.3Q48.9,-69.6 48.9,-67.1Q48.9,-65.2 47.7,-63.45Q46.5,-61.7 44.4,-61.4ZM64.8,-13.7Q62.6,-13.7 61,-15Q59.4,-16.3 59.4,-18.7L59.4,-70.2Q59.4,-72.8 60.95,-74.15Q62.5,-75.5 64.7,-75.5Q66.7,-75.5 68.3,-74.15Q69.9,-72.8 69.9,-70.2L69.9,-18.7Q69.9,-16.5 68.35,-15.1Q66.8,-13.7 64.8,-13.7ZM72.6,8.2Q69.1,8.2 64.9,7.5Q62.4,7.1 61.2,5Q60.3,3.5 60.3,1.7Q60.3,-1.2 62.2,-2.8Q63.5,-3.9 65.3,-3.9L66.5,-3.8Q70,-3.2 72.4,-3.2Q74,-3.2 75.1,-3.5Q78.4,-4.2 78.4,-8.1L78.4,-76.8Q78.4,-79.2 80.05,-80.65Q81.7,-82.1 83.9,-82.1Q86,-82.1 87.7,-80.75Q89.4,-79.4 89.4,-76.8L89.4,-6.3Q89.4,5.2 78.3,7.6Q75.8,8.2 72.6,8.2ZM44.1,8Q37.1,8 32,1.1Q29.9,-1.8 28.2,-5.3Q18.7,3.8 11,6.5Q9.8,6.8 8.7,6.8Q5.5,6.8 3.9,4.1Q3.1,2.7 3.1,1.2Q3.1,-2.2 7.1,-4.1Q15.7,-7.9 23.6,-16.4Q20,-27 17.9,-41.2L17.8,-41.7Q17.6,-42.8 17.5,-44.3L7.9,-42.9Q6.1,-42.9 4.8,-44.1Q3.1,-45.6 3.1,-48Q3.1,-49.7 4,-51.2Q5.3,-53.1 7.7,-53.4L16.4,-54.7Q15.6,-65.2 15.6,-76.7Q15.7,-78.7 17,-80.2Q18.3,-81.7 20.9,-81.7Q26.7,-81.7 26.9,-76Q27.1,-62.8 27.4,-56.3L50.6,-59.7Q52.3,-59.7 53.6,-58.6Q55.7,-57 55.7,-54.2Q55.7,-52.8 54.9,-51.6Q53.7,-49.7 51,-49.2L28.1,-45.8L28.4,-42.9Q29.3,-34.9 31.6,-26.5Q37.2,-34.8 39.8,-41.8Q41,-45.1 44.3,-45.1Q46,-45.1 47.8,-43.9Q50.6,-42.1 50.6,-39.4Q50.6,-38 49.9,-36.5Q45.9,-25.9 36.1,-14Q40.8,-4.9 43.3,-4.9Q44.5,-4.9 45.6,-6.4Q47.2,-8.6 48.1,-12.8Q48.6,-15.4 50.6,-16.4Q51.9,-17 53.2,-17Q54,-17 54.8,-16.8Q59.2,-15.5 59.2,-11.5Q59.2,-10.7 59,-9.8Q57.7,-3.1 53.55,2.45Q49.4,8 44.1,8Z"></path><path transform="translate(600 100)" d=""></path><path transform="translate(628 100)" d="M29.6,0.3Q26.5,0.3 24.55,-1.65Q22.6,-3.6 22.6,-6.6L22.6,-58.2L7.9,-58.2Q5.1,-58.2 3.25,-60Q1.4,-61.8 1.4,-64.8Q1.4,-67.6 3.25,-69.4Q5.1,-71.2 7.9,-71.2L51.2,-71.2Q54.1,-71.2 55.9,-69.4Q57.7,-67.6 57.7,-64.7Q57.7,-58.8 51.2,-58.2L36.6,-58.2L36.6,-6.6Q36.6,-3.6 34.6,-1.65Q32.6,0.3 29.6,0.3Z"></path><path transform="translate(687 100)" d="M50,0.3Q47,0.3 45.05,-1.55Q43.1,-3.4 43.1,-6.4L43.1,-30.2Q43.1,-35.6 40.2,-38.8Q37.3,-42 32.3,-42Q27.3,-42 24.45,-38.8Q21.6,-35.6 21.6,-30.2L21.6,-6.4Q21.6,-3.4 19.7,-1.55Q17.8,0.3 14.8,0.3Q11.8,0.3 9.9,-1.55Q8,-3.4 8,-6.4L8,-70Q8,-73 9.9,-74.9Q11.8,-76.8 14.7,-76.8Q17.8,-76.8 19.7,-74.9Q21.6,-73 21.6,-70L21.6,-48Q26.8,-54.7 36.4,-54.7Q45.7,-54.7 51.25,-48.65Q56.8,-42.6 56.8,-32.2L56.8,-6.4Q56.8,-3.4 54.9,-1.55Q53,0.3 50,0.3Z"></path><path transform="translate(751 100)" d="M33,1.4Q20.6,1.4 12.5,-6.8Q4.4,-15 4.4,-26.7Q4.4,-34.4 7.85,-40.75Q11.3,-47.1 17.5,-50.9Q23.7,-54.7 31.9,-54.7Q40.2,-54.7 46,-51.2Q51.8,-47.7 54.85,-42.25Q57.9,-36.8 57.9,-31.1Q57.9,-27.5 55.85,-25.35Q53.8,-23.2 49.9,-23.2L18.3,-23.2Q19.4,-17.5 23.4,-13.95Q27.4,-10.4 33.4,-10.4Q37,-10.4 39.4,-11.2Q41.8,-12 43.5,-12.9Q45.8,-14.3 48.1,-14.3Q50.5,-14.3 52.05,-12.9Q53.6,-11.5 53.6,-9.1Q53.6,-4.6 47.65,-1.6Q41.7,1.4 33,1.4ZM44.2,-31.8Q43.2,-37.4 39.75,-40.3Q36.3,-43.2 31.4,-43.2Q26.4,-43.2 23.1,-40.05Q19.8,-36.9 18.6,-31.8L44.2,-31.8Z"></path><path transform="translate(813 100)" d=""></path><path transform="translate(837 100)" d="M15.4,0.3Q12.4,0.3 10.5,-1.65Q8.6,-3.6 8.6,-6.6L8.6,-64.7Q8.6,-67.6 10.4,-69.4Q12.2,-71.2 15,-71.2L33.9,-71.2Q46.8,-71.2 54.6,-64.75Q62.4,-58.3 62.4,-47.7Q62.4,-36.9 54.55,-30.4Q46.7,-23.9 33.7,-23.9L22.4,-23.9L22.4,-6.6Q22.4,-3.6 20.45,-1.65Q18.5,0.3 15.4,0.3ZM35,-36.2Q40.8,-36.2 44.3,-39.35Q47.8,-42.5 47.8,-47.7Q47.8,-52.8 44.3,-55.85Q40.8,-58.9 35,-58.9L22.3,-58.9L22.3,-36.2L35,-36.2Z"></path><path transform="translate(903 100)" d="M14.8,0.3Q11.8,0.3 9.9,-1.55Q8,-3.4 8,-6.4L8,-46.8Q8,-49.8 9.9,-51.7Q11.8,-53.6 14.7,-53.6Q20.5,-53.6 21.6,-47.6Q26.5,-54.7 34.8,-54.7Q38.1,-54.7 41,-52.9Q43.9,-51.1 43.9,-47.3Q43.9,-41.3 37.2,-40.9Q35.8,-40.9 34,-41.25Q32.2,-41.6 29.7,-41.6Q26,-41.6 23.8,-39.05Q21.6,-36.5 21.6,-32.2L21.6,-6.4Q21.6,-3.4 19.7,-1.55Q17.8,0.3 14.8,0.3Z"></path><path transform="translate(949 100)" d="M32.1,1.4Q20.6,1.4 12.5,-6.8Q4.4,-15 4.4,-26.7Q4.4,-38.3 12.5,-46.5Q20.6,-54.7 32.1,-54.7Q43.7,-54.7 51.8,-46.5Q59.9,-38.3 59.9,-26.7Q59.9,-15 51.8,-6.8Q43.7,1.4 32.1,1.4ZM32.2,-11.2Q38.3,-11.2 42.25,-15.75Q46.2,-20.3 46.2,-26.7Q46.2,-33.1 42.25,-37.55Q38.3,-42 32.2,-42Q26.1,-42 22.05,-37.55Q18,-33.1 18,-26.7Q18,-20.3 22.05,-15.75Q26.1,-11.2 32.2,-11.2Z"></path><path transform="translate(1013 100)" d="M14.7,-60.3Q11.4,-60.3 9.1,-62.65Q6.8,-65 6.8,-68.3Q6.8,-71.6 9.1,-73.9Q11.4,-76.2 14.7,-76.2Q18,-76.2 20.35,-73.9Q22.7,-71.6 22.7,-68.3Q22.7,-65 20.35,-62.65Q18,-60.3 14.7,-60.3ZM1.2,23.2Q-4.6,23.2 -8.65,20.75Q-12.7,18.3 -12.7,14.3Q-12.7,12.2 -11.2,10.45Q-9.7,8.7 -7,8.7Q-4.9,8.7 -3,9.55Q-1.1,10.4 1.8,10.4Q7.9,10.4 7.9,2.9L7.9,-46.8Q7.9,-49.8 9.85,-51.7Q11.8,-53.6 14.7,-53.6Q17.8,-53.6 19.7,-51.7Q21.6,-49.8 21.6,-46.8L21.6,1.6Q21.6,11.7 16.1,17.45Q10.6,23.2 1.2,23.2Z"></path><path transform="translate(1042 100)" d="M33,1.4Q20.6,1.4 12.5,-6.8Q4.4,-15 4.4,-26.7Q4.4,-34.4 7.85,-40.75Q11.3,-47.1 17.5,-50.9Q23.7,-54.7 31.9,-54.7Q40.2,-54.7 46,-51.2Q51.8,-47.7 54.85,-42.25Q57.9,-36.8 57.9,-31.1Q57.9,-27.5 55.85,-25.35Q53.8,-23.2 49.9,-23.2L18.3,-23.2Q19.4,-17.5 23.4,-13.95Q27.4,-10.4 33.4,-10.4Q37,-10.4 39.4,-11.2Q41.8,-12 43.5,-12.9Q45.8,-14.3 48.1,-14.3Q50.5,-14.3 52.05,-12.9Q53.6,-11.5 53.6,-9.1Q53.6,-4.6 47.65,-1.6Q41.7,1.4 33,1.4ZM44.2,-31.8Q43.2,-37.4 39.75,-40.3Q36.3,-43.2 31.4,-43.2Q26.4,-43.2 23.1,-40.05Q19.8,-36.9 18.6,-31.8L44.2,-31.8Z"></path><path transform="translate(1104 100)" d="M32.9,1.4Q24.1,1.4 17.65,-2.35Q11.2,-6.1 7.7,-12.5Q4.2,-18.9 4.2,-26.7Q4.2,-34.4 7.8,-40.75Q11.4,-47.1 17.9,-50.9Q24.4,-54.7 33.3,-54.7Q40.9,-54.7 46.55,-51.9Q52.2,-49.1 52.2,-44.4Q52.2,-42 50.65,-40.45Q49.1,-38.9 46.8,-38.9Q44.7,-38.9 41.5,-40.1Q39.8,-40.8 37.6,-41.4Q35.4,-42 32.1,-42Q25.6,-42 21.75,-37.55Q17.9,-33.1 17.9,-26.7Q17.9,-20.2 21.75,-15.7Q25.6,-11.2 32.1,-11.2Q35.4,-11.2 37.6,-11.8Q39.8,-12.4 41.5,-13.1Q44.7,-14.3 46.8,-14.3Q49.1,-14.3 50.65,-12.75Q52.2,-11.2 52.2,-8.7Q52.2,-4.1 46.4,-1.35Q40.6,1.4 32.9,1.4Z"></path><path transform="translate(1159 100)" d="M29.6,1.4Q21.3,1.4 16.45,-3.55Q11.6,-8.5 11.6,-18.2L11.6,-41.2L6.7,-41.2Q4,-41.2 2.35,-42.9Q0.7,-44.6 0.7,-47.3Q0.7,-49.9 2.35,-51.55Q4,-53.2 6.7,-53.2L11.7,-53.2L11.7,-60.4Q11.7,-63.5 13.55,-65.4Q15.4,-67.3 18.3,-67.3Q21.4,-67.3 23.3,-65.4Q25.2,-63.5 25.2,-60.4L25.2,-53.2L35.2,-53.2Q37.8,-53.2 39.45,-51.55Q41.1,-49.9 41.1,-47.2Q41.1,-44.6 39.45,-42.9Q37.8,-41.2 35.2,-41.2L25.4,-41.2L25.4,-16.7Q25.4,-11.2 30.2,-11.2Q32.6,-11.2 34.55,-12.05Q36.5,-12.9 38.3,-12.9Q41.1,-12.9 42.5,-11.35Q43.9,-9.8 43.9,-7.8Q43.9,-3.9 40,-1.25Q36.1,1.4 29.6,1.4Z"></path><path transform="translate(1205 100)" d=""></path><path transform="translate(1229 100)" d="M15.4,1.4Q18.5,1.4 20.45,-0.5Q22.4,-2.4 22.4,-5.4L22.4,-27.8L43.4,-27.8Q46.3,-27.8 48.15,-29.6Q50,-31.4 50,-34.3Q50,-37.2 48.15,-39.05Q46.3,-40.9 43.4,-40.9L22.4,-40.9L22.4,-58.1L47.9,-58.1Q50.7,-58.1 52.55,-59.95Q54.4,-61.8 54.4,-64.7Q54.4,-70.5 47.9,-71.1L15,-71.1Q12.2,-71.1 10.4,-69.3Q8.6,-67.5 8.6,-64.7L8.6,-5.4Q8.6,-2.4 10.5,-0.5Q12.4,1.4 15.4,1.4Z"></path><path transform="translate(1287 100)" d="M32.1,1.4Q20.6,1.4 12.5,-6.8Q4.4,-15 4.4,-26.7Q4.4,-38.3 12.5,-46.5Q20.6,-54.7 32.1,-54.7Q43.7,-54.7 51.8,-46.5Q59.9,-38.3 59.9,-26.7Q59.9,-15 51.8,-6.8Q43.7,1.4 32.1,1.4ZM32.2,-11.2Q38.3,-11.2 42.25,-15.75Q46.2,-20.3 46.2,-26.7Q46.2,-33.1 42.25,-37.55Q38.3,-42 32.2,-42Q26.1,-42 22.05,-37.55Q18,-33.1 18,-26.7Q18,-20.3 22.05,-15.75Q26.1,-11.2 32.2,-11.2Z"></path><path transform="translate(1351 100)" d="M14.8,0.3Q11.8,0.3 9.9,-1.55Q8,-3.4 8,-6.4L8,-46.8Q8,-49.8 9.9,-51.7Q11.8,-53.6 14.7,-53.6Q20.5,-53.6 21.6,-47.6Q26.5,-54.7 34.8,-54.7Q38.1,-54.7 41,-52.9Q43.9,-51.1 43.9,-47.3Q43.9,-41.3 37.2,-40.9Q35.8,-40.9 34,-41.25Q32.2,-41.6 29.7,-41.6Q26,-41.6 23.8,-39.05Q21.6,-36.5 21.6,-32.2L21.6,-6.4Q21.6,-3.4 19.7,-1.55Q17.8,0.3 14.8,0.3Z"></path><path transform="translate(1397 100)" d=""></path><path transform="translate(1421 100)" d="M77,0.4Q68.4,0.4 66.2,-7.9L52.8,-54.4L39.4,-7.6Q37.2,0.4 28.8,0.4Q20.5,0.4 18,-7.4L1,-60.1Q0.3,-62.5 0.3,-64.3Q0.3,-66.9 2.05,-69.25Q3.8,-71.6 8,-71.7Q14.2,-71.7 16.3,-64.3L28.9,-16.6L41.8,-61.6Q43.2,-66.9 46.1,-69.3Q49,-71.7 53.5,-71.7Q58,-71.7 60.9,-69.3Q63.8,-66.9 65.2,-61.6L77.9,-16.9L89.4,-62Q91.3,-71.7 98.6,-71.7Q102.8,-71.5 104.8,-68.4Q105.9,-66.6 105.9,-64.2Q105.9,-62.3 105.3,-60.1L88.3,-7.8Q85.9,0.4 77,0.4Z"></path><path transform="translate(1534 100)" d="M33,1.4Q20.6,1.4 12.5,-6.8Q4.4,-15 4.4,-26.7Q4.4,-34.4 7.85,-40.75Q11.3,-47.1 17.5,-50.9Q23.7,-54.7 31.9,-54.7Q40.2,-54.7 46,-51.2Q51.8,-47.7 54.85,-42.25Q57.9,-36.8 57.9,-31.1Q57.9,-27.5 55.85,-25.35Q53.8,-23.2 49.9,-23.2L18.3,-23.2Q19.4,-17.5 23.4,-13.95Q27.4,-10.4 33.4,-10.4Q37,-10.4 39.4,-11.2Q41.8,-12 43.5,-12.9Q45.8,-14.3 48.1,-14.3Q50.5,-14.3 52.05,-12.9Q53.6,-11.5 53.6,-9.1Q53.6,-4.6 47.65,-1.6Q41.7,1.4 33,1.4ZM44.2,-31.8Q43.2,-37.4 39.75,-40.3Q36.3,-43.2 31.4,-43.2Q26.4,-43.2 23.1,-40.05Q19.8,-36.9 18.6,-31.8L44.2,-31.8Z"></path><path transform="translate(1596 100)" d="M37.2,1.4Q26.6,1.4 20.9,-5.6Q19.6,0.3 14.1,0.3Q11,0.3 9.1,-1.55Q7.2,-3.4 7.2,-6.4L7.2,-70Q7.2,-73 9.1,-74.9Q11,-76.8 14.1,-76.8Q17.1,-76.8 19,-74.9Q20.9,-73 20.9,-70L20.9,-47.3Q27.2,-54.7 37.2,-54.7Q44.2,-54.7 50,-51.15Q55.8,-47.6 59.3,-41.25Q62.8,-34.9 62.8,-26.6Q62.8,-14.6 55.5,-6.6Q48.2,1.4 37.2,1.4ZM35,-11.2Q41.2,-11.2 45.15,-15.65Q49.1,-20.1 49.1,-26.6Q49.1,-33 45.15,-37.5Q41.2,-42 35,-42Q28.9,-42 24.9,-37.5Q20.9,-33 20.9,-26.6Q20.9,-20.1 24.9,-15.65Q28.9,-11.2 35,-11.2Z"></path></svg>